<?xml version="1.0" encoding="UTF-8" standalone="no"?>
<!DOCTYPE svg PUBLIC "-//W3C//DTD SVG 1.1//EN"
 "http://www.w3.org/Graphics/SVG/1.1/DTD/svg11.dtd">
<!-- Generated by graphviz version 2.42.4 (0)
 -->
<!-- Title: PENA_POC01_08 Pages: 1 -->
<svg width="1339pt" height="459pt"
 viewBox="0.00 0.00 1339.40 458.77" xmlns="http://www.w3.org/2000/svg" xmlns:xlink="http://www.w3.org/1999/xlink">
<g id="graph0" class="graph" transform="scale(1 1) rotate(0) translate(25.2 433.57)">
<title>PENA_POC01_08</title>
<polygon fill="white" stroke="transparent" points="-25.2,25.2 -25.2,-433.57 1314.2,-433.57 1314.2,25.2 -25.2,25.2"/>
<text text-anchor="middle" x="644.5" y="-385.18" font-family="Helvetica,sans-Serif" font-size="24.00">PENA POC 01 — Trust and Relevance Scoring Design</text>
<g id="clust1" class="cluster">
<title>cluster_scoring</title>
<path fill="white" stroke="#2f5597" stroke-width="2" d="M227,-136.38C227,-136.38 836,-136.38 836,-136.38 842,-136.38 848,-142.38 848,-148.38 848,-148.38 848,-354.38 848,-354.38 848,-360.38 842,-366.38 836,-366.38 836,-366.38 227,-366.38 227,-366.38 221,-366.38 215,-360.38 215,-354.38 215,-354.38 215,-148.38 215,-148.38 215,-142.38 221,-136.38 227,-136.38"/>
<text text-anchor="middle" x="531.5" y="-343.18" font-family="Helvetica,sans-Serif" font-size="24.00">Scoring Module</text>
</g>
<!-- TRUST -->
<g id="node1" class="node">
<title>TRUST</title>
<polygon fill="#f8fbff" stroke="#2f5597" points="303,-252.38 236,-252.38 236,-248.38 232,-248.38 232,-244.38 236,-244.38 236,-224.38 232,-224.38 232,-220.38 236,-220.38 236,-216.38 303,-216.38 303,-252.38"/>
<polyline fill="none" stroke="#2f5597" points="236,-248.38 240,-248.38 240,-244.38 236,-244.38 "/>
<polyline fill="none" stroke="#2f5597" points="236,-224.38 240,-224.38 240,-220.38 236,-220.38 "/>
<text text-anchor="middle" x="269.5" y="-237.57" font-family="Helvetica,sans-Serif" font-size="11.00">Trust</text>
<text text-anchor="middle" x="269.5" y="-225.57" font-family="Helvetica,sans-Serif" font-size="11.00">Evaluator</text>
</g>
<!-- EXPLAIN -->
<g id="node3" class="node">
<title>EXPLAIN</title>
<polygon fill="#f8fbff" stroke="#2f5597" points="561,-284.38 495,-284.38 495,-280.38 491,-280.38 491,-276.38 495,-276.38 495,-256.38 491,-256.38 491,-252.38 495,-252.38 495,-248.38 561,-248.38 561,-284.38"/>
<polyline fill="none" stroke="#2f5597" points="495,-280.38 499,-280.38 499,-276.38 495,-276.38 "/>
<polyline fill="none" stroke="#2f5597" points="495,-256.38 499,-256.38 499,-252.38 495,-252.38 "/>
<text text-anchor="middle" x="528" y="-269.57" font-family="Helvetica,sans-Serif" font-size="11.00">Score</text>
<text text-anchor="middle" x="528" y="-257.57" font-family="Helvetica,sans-Serif" font-size="11.00">Explainer</text>
</g>
<!-- TRUST&#45;&gt;EXPLAIN -->
<g id="edge7" class="edge">
<title>TRUST&#45;&gt;EXPLAIN</title>
<path fill="none" stroke="#444444" d="M303.16,-232.56C332.35,-231.48 376.23,-231.18 414,-236.38 439.04,-239.82 466.46,-247.01 488.01,-253.49"/>
<polygon fill="#444444" stroke="#444444" points="487.38,-255.86 494.79,-255.56 488.82,-251.17 487.38,-255.86"/>
<text text-anchor="middle" x="378.5" y="-249.18" font-family="Helvetica,sans-Serif" font-size="9.00">trust score</text>
<text text-anchor="middle" x="378.5" y="-239.18" font-family="Helvetica,sans-Serif" font-size="9.00">reasons</text>
</g>
<!-- NOTE_SIMPLE -->
<g id="node11" class="node">
<title>NOTE_SIMPLE</title>
<polygon fill="#fffce8" stroke="#666666" points="609,-128.38 441,-128.38 441,-82.38 615,-82.38 615,-122.38 609,-128.38"/>
<polyline fill="none" stroke="#666666" points="609,-128.38 609,-122.38 "/>
<polyline fill="none" stroke="#666666" points="615,-122.38 609,-122.38 "/>
<text text-anchor="middle" x="528" y="-114.58" font-family="Helvetica,sans-Serif" font-size="11.00">POC 01 scoring should be</text>
<text text-anchor="middle" x="528" y="-102.58" font-family="Helvetica,sans-Serif" font-size="11.00">simple and explainable.</text>
<text text-anchor="middle" x="528" y="-90.58" font-family="Helvetica,sans-Serif" font-size="11.00">No complex ML required yet.</text>
</g>
<!-- TRUST&#45;&gt;NOTE_SIMPLE -->
<g id="edge12" class="edge">
<title>TRUST&#45;&gt;NOTE_SIMPLE</title>
<path fill="none" stroke="#888888" stroke-dasharray="5,2" d="M296.32,-216.29C328.85,-194.14 387.03,-156.59 441,-132.38 444,-131.03 447.08,-129.72 450.22,-128.46"/>
</g>
<!-- RANK -->
<g id="node2" class="node">
<title>RANK</title>
<polygon fill="#f8fbff" stroke="#2f5597" points="305.5,-324.38 233.5,-324.38 233.5,-320.38 229.5,-320.38 229.5,-316.38 233.5,-316.38 233.5,-296.38 229.5,-296.38 229.5,-292.38 233.5,-292.38 233.5,-288.38 305.5,-288.38 305.5,-324.38"/>
<polyline fill="none" stroke="#2f5597" points="233.5,-320.38 237.5,-320.38 237.5,-316.38 233.5,-316.38 "/>
<polyline fill="none" stroke="#2f5597" points="233.5,-296.38 237.5,-296.38 237.5,-292.38 233.5,-292.38 "/>
<text text-anchor="middle" x="269.5" y="-309.57" font-family="Helvetica,sans-Serif" font-size="11.00">Relevance</text>
<text text-anchor="middle" x="269.5" y="-297.57" font-family="Helvetica,sans-Serif" font-size="11.00">Ranker</text>
</g>
<!-- RANK&#45;&gt;EXPLAIN -->
<g id="edge8" class="edge">
<title>RANK&#45;&gt;EXPLAIN</title>
<path fill="none" stroke="#444444" d="M305.63,-300.9C353.23,-293.47 437.96,-280.26 487.65,-272.51"/>
<polygon fill="#444444" stroke="#444444" points="488.18,-274.91 494.72,-271.41 487.43,-270.07 488.18,-274.91"/>
<text text-anchor="middle" x="378.5" y="-308.18" font-family="Helvetica,sans-Serif" font-size="9.00">relevance score</text>
<text text-anchor="middle" x="378.5" y="-298.18" font-family="Helvetica,sans-Serif" font-size="9.00">reasons</text>
</g>
<!-- BUILDER -->
<g id="node5" class="node">
<title>BUILDER</title>
<polygon fill="#f8fbff" stroke="#2f5597" points="840,-284.38 749,-284.38 749,-280.38 745,-280.38 745,-276.38 749,-276.38 749,-256.38 745,-256.38 745,-252.38 749,-252.38 749,-248.38 840,-248.38 840,-284.38"/>
<polyline fill="none" stroke="#2f5597" points="749,-280.38 753,-280.38 753,-276.38 749,-276.38 "/>
<polyline fill="none" stroke="#2f5597" points="749,-256.38 753,-256.38 753,-252.38 749,-252.38 "/>
<text text-anchor="middle" x="794.5" y="-269.57" font-family="Helvetica,sans-Serif" font-size="11.00">Scored Article</text>
<text text-anchor="middle" x="794.5" y="-257.57" font-family="Helvetica,sans-Serif" font-size="11.00">Builder</text>
</g>
<!-- EXPLAIN&#45;&gt;BUILDER -->
<g id="edge9" class="edge">
<title>EXPLAIN&#45;&gt;BUILDER</title>
<path fill="none" stroke="#444444" d="M561.17,-266.38C606.1,-266.38 688.14,-266.38 741.73,-266.38"/>
<polygon fill="#444444" stroke="#444444" points="741.77,-268.83 748.77,-266.38 741.77,-263.93 741.77,-268.83"/>
<text text-anchor="middle" x="682" y="-269.18" font-family="Helvetica,sans-Serif" font-size="9.00">score explanation</text>
</g>
<!-- CONFIG -->
<g id="node4" class="node">
<title>CONFIG</title>
<polygon fill="#f8fbff" stroke="#2f5597" points="316,-180.38 223,-180.38 223,-176.38 219,-176.38 219,-172.38 223,-172.38 223,-152.38 219,-152.38 219,-148.38 223,-148.38 223,-144.38 316,-144.38 316,-180.38"/>
<polyline fill="none" stroke="#2f5597" points="223,-176.38 227,-176.38 227,-172.38 223,-172.38 "/>
<polyline fill="none" stroke="#2f5597" points="223,-152.38 227,-152.38 227,-148.38 223,-148.38 "/>
<text text-anchor="middle" x="269.5" y="-165.57" font-family="Helvetica,sans-Serif" font-size="11.00">Scoring Config</text>
<text text-anchor="middle" x="269.5" y="-153.57" font-family="Helvetica,sans-Serif" font-size="11.00">Loader</text>
</g>
<!-- RULES -->
<g id="node8" class="node">
<title>RULES</title>
<path fill="#fffce8" stroke="#666666" d="M555,-42.4C555,-44.73 542.9,-46.63 528,-46.63 513.1,-46.63 501,-44.73 501,-42.4 501,-42.4 501,-4.35 501,-4.35 501,-2.02 513.1,-0.12 528,-0.12 542.9,-0.12 555,-2.02 555,-4.35 555,-4.35 555,-42.4 555,-42.4"/>
<path fill="none" stroke="#666666" d="M555,-42.4C555,-40.07 542.9,-38.17 528,-38.17 513.1,-38.17 501,-40.07 501,-42.4"/>
<text text-anchor="middle" x="528" y="-26.57" font-family="Helvetica,sans-Serif" font-size="11.00">Trust</text>
<text text-anchor="middle" x="528" y="-14.57" font-family="Helvetica,sans-Serif" font-size="11.00">Rules</text>
</g>
<!-- CONFIG&#45;&gt;RULES -->
<g id="edge5" class="edge">
<title>CONFIG&#45;&gt;RULES</title>
<path fill="none" stroke="#444444" d="M273.76,-144.28C280.46,-113.1 299.01,-50.04 343,-23.38 389.29,4.69 454.92,-4.4 494,-13.75"/>
<polygon fill="#444444" stroke="#444444" points="493.59,-16.18 500.98,-15.49 494.78,-11.42 493.59,-16.18"/>
<text text-anchor="middle" x="378.5" y="-26.18" font-family="Helvetica,sans-Serif" font-size="9.00">loads</text>
</g>
<!-- SCORED -->
<g id="node9" class="node">
<title>SCORED</title>
<path fill="#fffce8" stroke="#666666" d="M1054,-334.4C1054,-336.73 1037.86,-338.63 1018,-338.63 998.14,-338.63 982,-336.73 982,-334.4 982,-334.4 982,-296.35 982,-296.35 982,-294.02 998.14,-292.12 1018,-292.12 1037.86,-292.12 1054,-294.02 1054,-296.35 1054,-296.35 1054,-334.4 1054,-334.4"/>
<path fill="none" stroke="#666666" d="M1054,-334.4C1054,-332.07 1037.86,-330.17 1018,-330.17 998.14,-330.17 982,-332.07 982,-334.4"/>
<text text-anchor="middle" x="1018" y="-318.57" font-family="Helvetica,sans-Serif" font-size="11.00">Scored</text>
<text text-anchor="middle" x="1018" y="-306.57" font-family="Helvetica,sans-Serif" font-size="11.00">Article Set</text>
</g>
<!-- BUILDER&#45;&gt;SCORED -->
<g id="edge10" class="edge">
<title>BUILDER&#45;&gt;SCORED</title>
<path fill="none" stroke="#444444" d="M840.06,-276.23C879.42,-284.94 936.41,-297.55 974.99,-306.08"/>
<polygon fill="#444444" stroke="#444444" points="974.61,-308.51 981.97,-307.63 975.67,-303.72 974.61,-308.51"/>
<text text-anchor="middle" x="907" y="-303.18" font-family="Helvetica,sans-Serif" font-size="9.00">scored articles</text>
</g>
<!-- OBS -->
<g id="node10" class="node">
<title>OBS</title>
<path fill="#fffce8" stroke="#666666" d="M1062,-251.4C1062,-253.73 1042.28,-255.63 1018,-255.63 993.72,-255.63 974,-253.73 974,-251.4 974,-251.4 974,-213.35 974,-213.35 974,-211.02 993.72,-209.12 1018,-209.12 1042.28,-209.12 1062,-211.02 1062,-213.35 1062,-213.35 1062,-251.4 1062,-251.4"/>
<path fill="none" stroke="#666666" d="M1062,-251.4C1062,-249.07 1042.28,-247.17 1018,-247.17 993.72,-247.17 974,-249.07 974,-251.4"/>
<text text-anchor="middle" x="1018" y="-235.57" font-family="Helvetica,sans-Serif" font-size="11.00">Scoring</text>
<text text-anchor="middle" x="1018" y="-223.57" font-family="Helvetica,sans-Serif" font-size="11.00">Observations</text>
</g>
<!-- BUILDER&#45;&gt;OBS -->
<g id="edge11" class="edge">
<title>BUILDER&#45;&gt;OBS</title>
<path fill="none" stroke="#444444" d="M840.13,-251.01C848.95,-248.44 858.2,-246.06 867,-244.38 899.88,-238.08 937.43,-235.08 966.73,-233.65"/>
<polygon fill="#444444" stroke="#444444" points="967.11,-236.09 973.99,-233.32 966.89,-231.19 967.11,-236.09"/>
<text text-anchor="middle" x="907" y="-247.18" font-family="Helvetica,sans-Serif" font-size="9.00">scoring metadata</text>
</g>
<!-- ARTICLES -->
<g id="node6" class="node">
<title>ARTICLES</title>
<path fill="#fffce8" stroke="#666666" d="M83.5,-357.4C83.5,-359.73 66.24,-361.63 45,-361.63 23.76,-361.63 6.5,-359.73 6.5,-357.4 6.5,-357.4 6.5,-319.35 6.5,-319.35 6.5,-317.02 23.76,-315.12 45,-315.12 66.24,-315.12 83.5,-317.02 83.5,-319.35 83.5,-319.35 83.5,-357.4 83.5,-357.4"/>
<path fill="none" stroke="#666666" d="M83.5,-357.4C83.5,-355.07 66.24,-353.17 45,-353.17 23.76,-353.17 6.5,-355.07 6.5,-357.4"/>
<text text-anchor="middle" x="45" y="-341.57" font-family="Helvetica,sans-Serif" font-size="11.00">Normalized</text>
<text text-anchor="middle" x="45" y="-329.57" font-family="Helvetica,sans-Serif" font-size="11.00">Article Set</text>
</g>
<!-- ARTICLES&#45;&gt;TRUST -->
<g id="edge1" class="edge">
<title>ARTICLES&#45;&gt;TRUST</title>
<path fill="none" stroke="#444444" d="M62.54,-314.83C70.89,-302.8 81.11,-287.9 90,-274.38 102.39,-255.52 97.25,-242.29 117,-231.38 151.14,-212.5 196.56,-216.5 228.74,-223.2"/>
<polygon fill="#444444" stroke="#444444" points="228.44,-225.65 235.8,-224.76 229.49,-220.86 228.44,-225.65"/>
<text text-anchor="middle" x="156.5" y="-244.18" font-family="Helvetica,sans-Serif" font-size="9.00">metadata</text>
<text text-anchor="middle" x="156.5" y="-234.18" font-family="Helvetica,sans-Serif" font-size="9.00">source info</text>
</g>
<!-- ARTICLES&#45;&gt;RANK -->
<g id="edge2" class="edge">
<title>ARTICLES&#45;&gt;RANK</title>
<path fill="none" stroke="#444444" d="M83.73,-335.06C114.14,-332.16 157.96,-327.45 196,-321.38 205.8,-319.81 216.29,-317.82 226.16,-315.81"/>
<polygon fill="#444444" stroke="#444444" points="226.86,-318.17 233.22,-314.35 225.87,-313.37 226.86,-318.17"/>
<text text-anchor="middle" x="156.5" y="-344.18" font-family="Helvetica,sans-Serif" font-size="9.00">content</text>
<text text-anchor="middle" x="156.5" y="-334.18" font-family="Helvetica,sans-Serif" font-size="9.00">topic match</text>
</g>
<!-- CONTEXT -->
<g id="node7" class="node">
<title>CONTEXT</title>
<path fill="#fffce8" stroke="#666666" d="M90,-252.4C90,-254.73 69.83,-256.63 45,-256.63 20.17,-256.63 0,-254.73 0,-252.4 0,-252.4 0,-214.35 0,-214.35 0,-212.02 20.17,-210.12 45,-210.12 69.83,-210.12 90,-212.02 90,-214.35 90,-214.35 90,-252.4 90,-252.4"/>
<path fill="none" stroke="#666666" d="M90,-252.4C90,-250.07 69.83,-248.17 45,-248.17 20.17,-248.17 0,-250.07 0,-252.4"/>
<text text-anchor="middle" x="45" y="-236.57" font-family="Helvetica,sans-Serif" font-size="11.00">User / Project</text>
<text text-anchor="middle" x="45" y="-224.57" font-family="Helvetica,sans-Serif" font-size="11.00">Context</text>
</g>
<!-- CONTEXT&#45;&gt;TRUST -->
<g id="edge4" class="edge">
<title>CONTEXT&#45;&gt;TRUST</title>
<path fill="none" stroke="#444444" d="M74.23,-210.29C86.58,-201.62 101.72,-192.81 117,-188.38 150.72,-178.59 162.28,-178.58 196,-188.38 200.56,-189.7 218.52,-201.09 235.43,-212.21"/>
<polygon fill="#444444" stroke="#444444" points="234.39,-214.46 241.58,-216.27 237.09,-210.37 234.39,-214.46"/>
<text text-anchor="middle" x="156.5" y="-191.18" font-family="Helvetica,sans-Serif" font-size="9.00">trust preferences</text>
</g>
<!-- CONTEXT&#45;&gt;RANK -->
<g id="edge3" class="edge">
<title>CONTEXT&#45;&gt;RANK</title>
<path fill="none" stroke="#444444" d="M90.14,-250.7C99,-254.02 108.26,-257.39 117,-260.38 153.6,-272.88 195.74,-285.53 226.27,-294.4"/>
<polygon fill="#444444" stroke="#444444" points="225.98,-296.86 233.38,-296.45 227.34,-292.15 225.98,-296.86"/>
<text text-anchor="middle" x="156.5" y="-298.18" font-family="Helvetica,sans-Serif" font-size="9.00">interests</text>
<text text-anchor="middle" x="156.5" y="-288.18" font-family="Helvetica,sans-Serif" font-size="9.00">project focus</text>
</g>
<!-- RULES&#45;&gt;TRUST -->
<g id="edge6" class="edge">
<title>RULES&#45;&gt;TRUST</title>
<path fill="none" stroke="#444444" d="M500.96,-34.69C483.66,-42.48 460.61,-53.36 441,-64.38 395.64,-89.85 375.72,-87.93 343,-128.38 322.03,-154.3 335.77,-171.53 316,-198.38 312.48,-203.16 308.17,-207.64 303.62,-211.72"/>
<polygon fill="#444444" stroke="#444444" points="301.96,-209.91 298.2,-216.31 305.12,-213.65 301.96,-209.91"/>
<text text-anchor="middle" x="378.5" y="-131.18" font-family="Helvetica,sans-Serif" font-size="9.00">scoring rules</text>
</g>
<!-- NOTE_SCORED -->
<g id="node12" class="node">
<title>NOTE_SCORED</title>
<polygon fill="#fffce8" stroke="#666666" points="1283,-356.38 1117,-356.38 1117,-274.38 1289,-274.38 1289,-350.38 1283,-356.38"/>
<polyline fill="none" stroke="#666666" points="1283,-356.38 1283,-350.38 "/>
<polyline fill="none" stroke="#666666" points="1289,-350.38 1283,-350.38 "/>
<text text-anchor="middle" x="1203" y="-342.57" font-family="Helvetica,sans-Serif" font-size="11.00">Each scored article includes:</text>
<text text-anchor="middle" x="1203" y="-330.57" font-family="Helvetica,sans-Serif" font-size="11.00">• trust score</text>
<text text-anchor="middle" x="1203" y="-318.57" font-family="Helvetica,sans-Serif" font-size="11.00">• relevance score</text>
<text text-anchor="middle" x="1203" y="-306.57" font-family="Helvetica,sans-Serif" font-size="11.00">• reasons</text>
<text text-anchor="middle" x="1203" y="-294.57" font-family="Helvetica,sans-Serif" font-size="11.00">• uncertainty notes</text>
<text text-anchor="middle" x="1203" y="-282.57" font-family="Helvetica,sans-Serif" font-size="11.00">• source notes</text>
</g>
<!-- SCORED&#45;&gt;NOTE_SCORED -->
<g id="edge13" class="edge">
<title>SCORED&#45;&gt;NOTE_SCORED</title>
<path fill="none" stroke="#888888" stroke-dasharray="5,2" d="M1054.28,-315.38C1072.15,-315.38 1094.68,-315.38 1116.73,-315.38"/>
</g>
</g>
</svg>
