<?xml version="1.0" encoding="UTF-8" standalone="no"?>
<!DOCTYPE svg PUBLIC "-//W3C//DTD SVG 1.1//EN"
 "http://www.w3.org/Graphics/SVG/1.1/DTD/svg11.dtd">
<!-- Generated by graphviz version 2.43.0 (0)
 -->
<!-- Title: PENA_UML_12 Pages: 1 -->
<svg width="1273pt" height="1114pt"
 viewBox="0.00 0.00 1272.71 1114.28" xmlns="http://www.w3.org/2000/svg" xmlns:xlink="http://www.w3.org/1999/xlink">
<g id="graph0" class="graph" transform="scale(1 1) rotate(0) translate(25.2 1089.08)">
<title>PENA_UML_12</title>
<polygon fill="white" stroke="transparent" points="-25.2,25.2 -25.2,-1089.08 1247.51,-1089.08 1247.51,25.2 -25.2,25.2"/>
<text text-anchor="middle" x="611.15" y="-1040.67" font-family="Helvetica,sans-Serif" font-size="24.00">PENA&#45;Agent — Agent and AI Interaction Topology</text>
<g id="clust1" class="cluster">
<title>cluster_agents</title>
<path fill="white" stroke="#2f5597" stroke-width="2" d="M20,-329.5C20,-329.5 733.15,-329.5 733.15,-329.5 739.15,-329.5 745.15,-335.5 745.15,-341.5 745.15,-341.5 745.15,-963.5 745.15,-963.5 745.15,-969.5 739.15,-975.5 733.15,-975.5 733.15,-975.5 20,-975.5 20,-975.5 14,-975.5 8,-969.5 8,-963.5 8,-963.5 8,-341.5 8,-341.5 8,-335.5 14,-329.5 20,-329.5"/>
<text text-anchor="middle" x="376.58" y="-952.3" font-family="Helvetica,sans-Serif" font-size="24.00">PENA Agent System</text>
</g>
<!-- User -->
<g id="node1" class="node">
<title>User</title>
<ellipse fill="#f5f5f5" stroke="#444444" cx="706.15" cy="-151.5" rx="27" ry="18"/>
<text text-anchor="middle" x="706.15" y="-148.7" font-family="Helvetica,sans-Serif" font-size="11.00">User</text>
</g>
<!-- ORCH -->
<g id="node3" class="node">
<title>ORCH</title>
<polygon fill="#f8fbff" stroke="#2f5597" points="101,-642.5 16,-642.5 16,-638.5 12,-638.5 12,-634.5 16,-634.5 16,-614.5 12,-614.5 12,-610.5 16,-610.5 16,-606.5 101,-606.5 101,-642.5"/>
<polyline fill="none" stroke="#2f5597" points="16,-638.5 20,-638.5 20,-634.5 16,-634.5 "/>
<polyline fill="none" stroke="#2f5597" points="16,-614.5 20,-614.5 20,-610.5 16,-610.5 "/>
<text text-anchor="middle" x="58.5" y="-627.7" font-family="Helvetica,sans-Serif" font-size="11.00">Orchestrator</text>
<text text-anchor="middle" x="58.5" y="-615.7" font-family="Helvetica,sans-Serif" font-size="11.00">Agent</text>
</g>
<!-- User&#45;&gt;ORCH -->
<g id="edge1" class="edge">
<title>User&#45;&gt;ORCH</title>
<path fill="none" stroke="#444444" d="M678.95,-151.05C586.7,-151.02 274.6,-164.34 128,-339.5 94.65,-379.34 70.92,-536.96 62.68,-599.11"/>
<polygon fill="#444444" stroke="#444444" points="60.23,-598.94 61.76,-606.2 65.09,-599.58 60.23,-598.94"/>
<text text-anchor="middle" x="357.5" y="-258.3" font-family="Helvetica,sans-Serif" font-size="9.00">request digest</text>
<text text-anchor="middle" x="357.5" y="-248.3" font-family="Helvetica,sans-Serif" font-size="9.00">provide feedback</text>
</g>
<!-- Dev -->
<g id="node2" class="node">
<title>Dev</title>
<ellipse fill="#f5f5f5" stroke="#444444" cx="706.15" cy="-69.5" rx="55.31" ry="24.08"/>
<text text-anchor="middle" x="706.15" y="-72.7" font-family="Helvetica,sans-Serif" font-size="11.00">Developer /</text>
<text text-anchor="middle" x="706.15" y="-60.7" font-family="Helvetica,sans-Serif" font-size="11.00">Architect</text>
</g>
<!-- REPO -->
<g id="node12" class="node">
<title>REPO</title>
<path fill="#fffce8" stroke="#666666" d="M1033.31,-645.52C1033.31,-647.86 1001.71,-649.75 962.81,-649.75 923.91,-649.75 892.31,-647.86 892.31,-645.52 892.31,-645.52 892.31,-607.48 892.31,-607.48 892.31,-605.14 923.91,-603.25 962.81,-603.25 1001.71,-603.25 1033.31,-605.14 1033.31,-607.48 1033.31,-607.48 1033.31,-645.52 1033.31,-645.52"/>
<path fill="none" stroke="#666666" d="M1033.31,-645.52C1033.31,-643.19 1001.71,-641.3 962.81,-641.3 923.91,-641.3 892.31,-643.19 892.31,-645.52"/>
<text text-anchor="middle" x="962.81" y="-629.7" font-family="Helvetica,sans-Serif" font-size="11.00">Repository Context</text>
<text text-anchor="middle" x="962.81" y="-617.7" font-family="Helvetica,sans-Serif" font-size="11.00">Specs / UML / Learning</text>
</g>
<!-- Dev&#45;&gt;REPO -->
<g id="edge2" class="edge">
<title>Dev&#45;&gt;REPO</title>
<path fill="none" stroke="#444444" d="M737.26,-89.45C745.9,-96.28 754.74,-104.5 761.31,-113.5 878.68,-274.29 937.75,-512.82 955.72,-596.32"/>
<polygon fill="#444444" stroke="#444444" points="953.34,-596.88 957.19,-603.22 958.13,-595.86 953.34,-596.88"/>
<text text-anchor="middle" x="826.81" y="-311.3" font-family="Helvetica,sans-Serif" font-size="9.00">curate specs</text>
<text text-anchor="middle" x="826.81" y="-301.3" font-family="Helvetica,sans-Serif" font-size="9.00">review outputs</text>
</g>
<!-- CTX -->
<g id="node4" class="node">
<title>CTX</title>
<polygon fill="#f8fbff" stroke="#2f5597" points="735.15,-737.5 677.15,-737.5 677.15,-733.5 673.15,-733.5 673.15,-729.5 677.15,-729.5 677.15,-709.5 673.15,-709.5 673.15,-705.5 677.15,-705.5 677.15,-701.5 735.15,-701.5 735.15,-737.5"/>
<polyline fill="none" stroke="#2f5597" points="677.15,-733.5 681.15,-733.5 681.15,-729.5 677.15,-729.5 "/>
<polyline fill="none" stroke="#2f5597" points="677.15,-709.5 681.15,-709.5 681.15,-705.5 677.15,-705.5 "/>
<text text-anchor="middle" x="706.15" y="-722.7" font-family="Helvetica,sans-Serif" font-size="11.00">Context</text>
<text text-anchor="middle" x="706.15" y="-710.7" font-family="Helvetica,sans-Serif" font-size="11.00">Agent</text>
</g>
<!-- ORCH&#45;&gt;CTX -->
<g id="edge3" class="edge">
<title>ORCH&#45;&gt;CTX</title>
<path fill="none" stroke="#444444" d="M87.06,-642.62C99.14,-649.69 113.79,-657.14 128,-661.5 179.81,-677.4 552.51,-707.56 669.87,-716.77"/>
<polygon fill="#444444" stroke="#444444" points="669.73,-719.21 676.9,-717.32 670.11,-714.33 669.73,-719.21"/>
<text text-anchor="middle" x="357.5" y="-702.3" font-family="Helvetica,sans-Serif" font-size="9.00">request grounding context</text>
</g>
<!-- ING -->
<g id="node5" class="node">
<title>ING</title>
<polygon fill="#f8fbff" stroke="#2f5597" points="390,-449.5 325,-449.5 325,-445.5 321,-445.5 321,-441.5 325,-441.5 325,-421.5 321,-421.5 321,-417.5 325,-417.5 325,-413.5 390,-413.5 390,-449.5"/>
<polyline fill="none" stroke="#2f5597" points="325,-445.5 329,-445.5 329,-441.5 325,-441.5 "/>
<polyline fill="none" stroke="#2f5597" points="325,-421.5 329,-421.5 329,-417.5 325,-417.5 "/>
<text text-anchor="middle" x="357.5" y="-434.7" font-family="Helvetica,sans-Serif" font-size="11.00">Ingestion</text>
<text text-anchor="middle" x="357.5" y="-422.7" font-family="Helvetica,sans-Serif" font-size="11.00">Agent</text>
</g>
<!-- ORCH&#45;&gt;ING -->
<g id="edge6" class="edge">
<title>ORCH&#45;&gt;ING</title>
<path fill="none" stroke="#444444" d="M63.97,-606.26C71.91,-577.81 91.19,-523.08 128,-493.5 183.47,-448.92 268.4,-436.28 317.59,-432.77"/>
<polygon fill="#444444" stroke="#444444" points="318.05,-435.2 324.88,-432.3 317.73,-430.31 318.05,-435.2"/>
<text text-anchor="middle" x="171.5" y="-496.3" font-family="Helvetica,sans-Serif" font-size="9.00">collect content</text>
</g>
<!-- TRUST -->
<g id="node6" class="node">
<title>TRUST</title>
<polygon fill="#f8fbff" stroke="#2f5597" points="409,-601.5 306,-601.5 306,-597.5 302,-597.5 302,-593.5 306,-593.5 306,-573.5 302,-573.5 302,-569.5 306,-569.5 306,-565.5 409,-565.5 409,-601.5"/>
<polyline fill="none" stroke="#2f5597" points="306,-597.5 310,-597.5 310,-593.5 306,-593.5 "/>
<polyline fill="none" stroke="#2f5597" points="306,-573.5 310,-573.5 310,-569.5 306,-569.5 "/>
<text text-anchor="middle" x="357.5" y="-586.7" font-family="Helvetica,sans-Serif" font-size="11.00">Trust Evaluation</text>
<text text-anchor="middle" x="357.5" y="-574.7" font-family="Helvetica,sans-Serif" font-size="11.00">Agent</text>
</g>
<!-- ORCH&#45;&gt;TRUST -->
<g id="edge9" class="edge">
<title>ORCH&#45;&gt;TRUST</title>
<path fill="none" stroke="#444444" d="M101.18,-621.04C132.55,-618.23 176.56,-613.87 215,-608.5 242.66,-604.64 273.2,-599.37 298.8,-594.67"/>
<polygon fill="#444444" stroke="#444444" points="299.45,-597.04 305.88,-593.36 298.56,-592.22 299.45,-597.04"/>
<text text-anchor="middle" x="171.5" y="-620.3" font-family="Helvetica,sans-Serif" font-size="9.00">evaluate trust</text>
</g>
<!-- SUM -->
<g id="node7" class="node">
<title>SUM</title>
<polygon fill="#f8fbff" stroke="#2f5597" points="406,-525.5 309,-525.5 309,-521.5 305,-521.5 305,-517.5 309,-517.5 309,-497.5 305,-497.5 305,-493.5 309,-493.5 309,-489.5 406,-489.5 406,-525.5"/>
<polyline fill="none" stroke="#2f5597" points="309,-521.5 313,-521.5 313,-517.5 309,-517.5 "/>
<polyline fill="none" stroke="#2f5597" points="309,-497.5 313,-497.5 313,-493.5 309,-493.5 "/>
<text text-anchor="middle" x="357.5" y="-510.7" font-family="Helvetica,sans-Serif" font-size="11.00">Summarization</text>
<text text-anchor="middle" x="357.5" y="-498.7" font-family="Helvetica,sans-Serif" font-size="11.00">Agent</text>
</g>
<!-- ORCH&#45;&gt;SUM -->
<g id="edge12" class="edge">
<title>ORCH&#45;&gt;SUM</title>
<path fill="none" stroke="#444444" d="M98.6,-606.38C135.28,-589.67 191.84,-564.64 242,-545.5 261.43,-538.09 283.01,-530.71 302.16,-524.45"/>
<polygon fill="#444444" stroke="#444444" points="302.92,-526.78 308.82,-522.29 301.4,-522.12 302.92,-526.78"/>
<text text-anchor="middle" x="171.5" y="-595.3" font-family="Helvetica,sans-Serif" font-size="9.00">summarize/analyze</text>
</g>
<!-- RANK -->
<g id="node8" class="node">
<title>RANK</title>
<polygon fill="#f8fbff" stroke="#2f5597" points="417,-767.5 298,-767.5 298,-763.5 294,-763.5 294,-759.5 298,-759.5 298,-739.5 294,-739.5 294,-735.5 298,-735.5 298,-731.5 417,-731.5 417,-767.5"/>
<polyline fill="none" stroke="#2f5597" points="298,-763.5 302,-763.5 302,-759.5 298,-759.5 "/>
<polyline fill="none" stroke="#2f5597" points="298,-739.5 302,-739.5 302,-735.5 298,-735.5 "/>
<text text-anchor="middle" x="357.5" y="-752.7" font-family="Helvetica,sans-Serif" font-size="11.00">Relevance Ranking</text>
<text text-anchor="middle" x="357.5" y="-740.7" font-family="Helvetica,sans-Serif" font-size="11.00">Agent</text>
</g>
<!-- ORCH&#45;&gt;RANK -->
<g id="edge15" class="edge">
<title>ORCH&#45;&gt;RANK</title>
<path fill="none" stroke="#444444" d="M61.22,-642.52C65.54,-676.47 80.2,-749.29 128,-780.5 184.66,-817.5 266.13,-792.12 314.94,-770.61"/>
<polygon fill="#444444" stroke="#444444" points="316.22,-772.71 321.6,-767.6 314.21,-768.25 316.22,-772.71"/>
<text text-anchor="middle" x="171.5" y="-801.3" font-family="Helvetica,sans-Serif" font-size="9.00">rank relevance</text>
</g>
<!-- DIGEST -->
<g id="node9" class="node">
<title>DIGEST</title>
<polygon fill="#f8fbff" stroke="#2f5597" points="384.5,-373.5 330.5,-373.5 330.5,-369.5 326.5,-369.5 326.5,-365.5 330.5,-365.5 330.5,-345.5 326.5,-345.5 326.5,-341.5 330.5,-341.5 330.5,-337.5 384.5,-337.5 384.5,-373.5"/>
<polyline fill="none" stroke="#2f5597" points="330.5,-369.5 334.5,-369.5 334.5,-365.5 330.5,-365.5 "/>
<polyline fill="none" stroke="#2f5597" points="330.5,-345.5 334.5,-345.5 334.5,-341.5 330.5,-341.5 "/>
<text text-anchor="middle" x="357.5" y="-358.7" font-family="Helvetica,sans-Serif" font-size="11.00">Digest</text>
<text text-anchor="middle" x="357.5" y="-346.7" font-family="Helvetica,sans-Serif" font-size="11.00">Agent</text>
</g>
<!-- ORCH&#45;&gt;DIGEST -->
<g id="edge18" class="edge">
<title>ORCH&#45;&gt;DIGEST</title>
<path fill="none" stroke="#444444" d="M62.12,-606.27C69.8,-555.61 93.83,-414.94 128,-385.5 182.78,-338.31 274.09,-342.79 323.06,-349.51"/>
<polygon fill="#444444" stroke="#444444" points="322.97,-351.98 330.25,-350.56 323.68,-347.13 322.97,-351.98"/>
<text text-anchor="middle" x="171.5" y="-388.3" font-family="Helvetica,sans-Serif" font-size="9.00">assemble digest</text>
</g>
<!-- OBSAG -->
<g id="node10" class="node">
<title>OBSAG</title>
<polygon fill="#f8fbff" stroke="#2f5597" points="401.5,-933.5 313.5,-933.5 313.5,-929.5 309.5,-929.5 309.5,-925.5 313.5,-925.5 313.5,-905.5 309.5,-905.5 309.5,-901.5 313.5,-901.5 313.5,-897.5 401.5,-897.5 401.5,-933.5"/>
<polyline fill="none" stroke="#2f5597" points="313.5,-929.5 317.5,-929.5 317.5,-925.5 313.5,-925.5 "/>
<polyline fill="none" stroke="#2f5597" points="313.5,-905.5 317.5,-905.5 317.5,-901.5 313.5,-901.5 "/>
<text text-anchor="middle" x="357.5" y="-918.7" font-family="Helvetica,sans-Serif" font-size="11.00">Observability</text>
<text text-anchor="middle" x="357.5" y="-906.7" font-family="Helvetica,sans-Serif" font-size="11.00">Agent</text>
</g>
<!-- ORCH&#45;&gt;OBSAG -->
<g id="edge20" class="edge">
<title>ORCH&#45;&gt;OBSAG</title>
<path fill="none" stroke="#444444" d="M59.12,-642.78C59.27,-686.71 66.03,-798.98 128,-858.5 175.88,-904.48 254.94,-915.07 306.37,-916.66"/>
<polygon fill="#444444" stroke="#444444" points="306.38,-919.11 313.44,-916.82 306.5,-914.21 306.38,-919.11"/>
<text text-anchor="middle" x="171.5" y="-905.3" font-family="Helvetica,sans-Serif" font-size="9.00">interaction traces</text>
</g>
<!-- NOTE_ORCH -->
<g id="node16" class="node">
<title>NOTE_ORCH</title>
<polygon fill="#fffce8" stroke="#666666" points="467,-71 242,-71 242,0 473,0 473,-65 467,-71"/>
<polyline fill="none" stroke="#666666" points="467,-71 467,-65 "/>
<polyline fill="none" stroke="#666666" points="473,-65 467,-65 "/>
<text text-anchor="middle" x="357.5" y="-57.2" font-family="Helvetica,sans-Serif" font-size="11.00">The orchestrator coordinates</text>
<text text-anchor="middle" x="357.5" y="-45.2" font-family="Helvetica,sans-Serif" font-size="11.00">specialized agents.</text>
<text text-anchor="middle" x="357.5" y="-20.2" font-family="Helvetica,sans-Serif" font-size="11.00">Each agent has a narrow responsibility.</text>
<text text-anchor="middle" x="357.5" y="-8.2" font-family="Helvetica,sans-Serif" font-size="11.00">Human governance remains central.</text>
</g>
<!-- ORCH&#45;&gt;NOTE_ORCH -->
<g id="edge24" class="edge">
<title>ORCH&#45;&gt;NOTE_ORCH</title>
<path fill="none" stroke="#888888" stroke-dasharray="5,2" d="M59.55,-606.46C60.11,-525.68 66.21,-197.72 128,-120.5 156.03,-85.47 200.03,-64.88 241.96,-52.77"/>
</g>
<!-- CTX&#45;&gt;ORCH -->
<g id="edge5" class="edge">
<title>CTX&#45;&gt;ORCH</title>
<path fill="none" stroke="#444444" d="M676.86,-734.3C661.55,-741.82 642.11,-750.6 624,-756.5 518.39,-790.93 218.68,-882.65 128,-818.5 73.01,-779.6 61.86,-692.73 59.81,-649.68"/>
<polygon fill="#444444" stroke="#444444" points="62.26,-649.56 59.54,-642.66 57.36,-649.75 62.26,-649.56"/>
<text text-anchor="middle" x="357.5" y="-842.3" font-family="Helvetica,sans-Serif" font-size="9.00">context package</text>
</g>
<!-- CTX&#45;&gt;REPO -->
<g id="edge4" class="edge">
<title>CTX&#45;&gt;REPO</title>
<path fill="none" stroke="#444444" d="M735.38,-709.19C773.55,-695.25 842.82,-669.95 894.73,-651"/>
<polygon fill="#444444" stroke="#444444" points="895.88,-653.19 901.61,-648.48 894.19,-648.58 895.88,-653.19"/>
<text text-anchor="middle" x="826.81" y="-711.3" font-family="Helvetica,sans-Serif" font-size="9.00">trusted context</text>
<text text-anchor="middle" x="826.81" y="-701.3" font-family="Helvetica,sans-Serif" font-size="9.00">provenance</text>
<text text-anchor="middle" x="826.81" y="-691.3" font-family="Helvetica,sans-Serif" font-size="9.00">preferences</text>
</g>
<!-- ING&#45;&gt;ORCH -->
<g id="edge8" class="edge">
<title>ING&#45;&gt;ORCH</title>
<path fill="none" stroke="#444444" d="M324.64,-421.13C277.06,-407.78 186.76,-390.88 128,-432.5 73.78,-470.9 62.25,-556.23 59.95,-599.01"/>
<polygon fill="#444444" stroke="#444444" points="57.49,-599.14 59.63,-606.24 62.39,-599.35 57.49,-599.14"/>
<text text-anchor="middle" x="171.5" y="-435.3" font-family="Helvetica,sans-Serif" font-size="9.00">article set</text>
</g>
<!-- NEWS -->
<g id="node15" class="node">
<title>NEWS</title>
<path fill="#f2f2f2" stroke="#666666" d="M732.65,-245.5C732.65,-245.5 679.65,-245.5 679.65,-245.5 673.65,-245.5 667.65,-239.5 667.65,-233.5 667.65,-233.5 667.65,-221.5 667.65,-221.5 667.65,-215.5 673.65,-209.5 679.65,-209.5 679.65,-209.5 732.65,-209.5 732.65,-209.5 738.65,-209.5 744.65,-215.5 744.65,-221.5 744.65,-221.5 744.65,-233.5 744.65,-233.5 744.65,-239.5 738.65,-245.5 732.65,-245.5"/>
<text text-anchor="middle" x="706.15" y="-230.7" font-family="Helvetica,sans-Serif" font-size="11.00">News / RSS</text>
<text text-anchor="middle" x="706.15" y="-218.7" font-family="Helvetica,sans-Serif" font-size="11.00">Sources</text>
</g>
<!-- ING&#45;&gt;NEWS -->
<g id="edge7" class="edge">
<title>ING&#45;&gt;NEWS</title>
<path fill="none" stroke="#444444" d="M390.04,-429.37C416.01,-425.91 451.86,-416.88 473,-393.5 509.95,-352.62 460.97,-311.39 500,-272.5 522.19,-250.39 606.98,-237.69 660.36,-231.73"/>
<polygon fill="#444444" stroke="#444444" points="660.66,-234.16 667.35,-230.97 660.13,-229.29 660.66,-234.16"/>
<text text-anchor="middle" x="562" y="-275.3" font-family="Helvetica,sans-Serif" font-size="9.00">retrieve articles</text>
</g>
<!-- TRUST&#45;&gt;ORCH -->
<g id="edge11" class="edge">
<title>TRUST&#45;&gt;ORCH</title>
<path fill="none" stroke="#444444" d="M320.33,-601.52C292.35,-614.41 252.24,-630.64 215,-637.5 176.97,-644.51 166.5,-641.12 128,-637.5 121.63,-636.9 114.97,-635.99 108.41,-634.93"/>
<polygon fill="#444444" stroke="#444444" points="108.66,-632.49 101.34,-633.73 107.83,-637.32 108.66,-632.49"/>
<text text-anchor="middle" x="171.5" y="-644.3" font-family="Helvetica,sans-Serif" font-size="9.00">trust signals</text>
</g>
<!-- TRUST&#45;&gt;REPO -->
<g id="edge10" class="edge">
<title>TRUST&#45;&gt;REPO</title>
<path fill="none" stroke="#444444" d="M409.16,-587.11C514.84,-594.64 759.36,-612.07 884.7,-621"/>
<polygon fill="#444444" stroke="#444444" points="884.89,-623.47 892.04,-621.53 885.23,-618.59 884.89,-623.47"/>
<text text-anchor="middle" x="706.15" y="-624.3" font-family="Helvetica,sans-Serif" font-size="9.00">source history</text>
<text text-anchor="middle" x="706.15" y="-614.3" font-family="Helvetica,sans-Serif" font-size="9.00">trust rules</text>
</g>
<!-- SUM&#45;&gt;ORCH -->
<g id="edge14" class="edge">
<title>SUM&#45;&gt;ORCH</title>
<path fill="none" stroke="#444444" d="M308.71,-505.27C260.15,-505.1 184.28,-510.76 128,-542.5 104.05,-556.01 84.87,-581.37 72.96,-600.32"/>
<polygon fill="#444444" stroke="#444444" points="70.76,-599.23 69.21,-606.48 74.94,-601.78 70.76,-599.23"/>
<text text-anchor="middle" x="171.5" y="-545.3" font-family="Helvetica,sans-Serif" font-size="9.00">summaries</text>
</g>
<!-- LLM -->
<g id="node14" class="node">
<title>LLM</title>
<path fill="#f2f2f2" stroke="#666666" d="M727.15,-321.5C727.15,-321.5 685.15,-321.5 685.15,-321.5 679.15,-321.5 673.15,-315.5 673.15,-309.5 673.15,-309.5 673.15,-297.5 673.15,-297.5 673.15,-291.5 679.15,-285.5 685.15,-285.5 685.15,-285.5 727.15,-285.5 727.15,-285.5 733.15,-285.5 739.15,-291.5 739.15,-297.5 739.15,-297.5 739.15,-309.5 739.15,-309.5 739.15,-315.5 733.15,-321.5 727.15,-321.5"/>
<text text-anchor="middle" x="706.15" y="-306.7" font-family="Helvetica,sans-Serif" font-size="11.00">LLM</text>
<text text-anchor="middle" x="706.15" y="-294.7" font-family="Helvetica,sans-Serif" font-size="11.00">Providers</text>
</g>
<!-- SUM&#45;&gt;LLM -->
<g id="edge13" class="edge">
<title>SUM&#45;&gt;LLM</title>
<path fill="none" stroke="#444444" d="M406.05,-495.89C427.27,-489.67 452.14,-480.9 473,-469.5 562.28,-420.69 563.36,-377.21 651,-325.5 655.79,-322.67 661.02,-320.05 666.27,-317.66"/>
<polygon fill="#444444" stroke="#444444" points="667.46,-319.82 672.91,-314.78 665.51,-315.32 667.46,-319.82"/>
<text text-anchor="middle" x="562" y="-454.3" font-family="Helvetica,sans-Serif" font-size="9.00">context&#45;grounded prompts</text>
</g>
<!-- RANK&#45;&gt;ORCH -->
<g id="edge17" class="edge">
<title>RANK&#45;&gt;ORCH</title>
<path fill="none" stroke="#444444" d="M297.81,-756.38C248.95,-759.2 179.33,-756.25 128,-725.5 99.05,-708.16 79.61,-673.3 69.05,-649.43"/>
<polygon fill="#444444" stroke="#444444" points="71.18,-648.19 66.18,-642.71 66.68,-650.11 71.18,-648.19"/>
<text text-anchor="middle" x="171.5" y="-755.3" font-family="Helvetica,sans-Serif" font-size="9.00">ranked items</text>
</g>
<!-- RANK&#45;&gt;CTX -->
<g id="edge16" class="edge">
<title>RANK&#45;&gt;CTX</title>
<path fill="none" stroke="#444444" d="M417.31,-744.41C489.55,-738.16 609.84,-727.75 669.44,-722.59"/>
<polygon fill="#444444" stroke="#444444" points="669.98,-725 676.74,-721.96 669.56,-720.12 669.98,-725"/>
<text text-anchor="middle" x="562" y="-739.3" font-family="Helvetica,sans-Serif" font-size="9.00">user context</text>
</g>
<!-- DIGEST&#45;&gt;User -->
<g id="edge19" class="edge">
<title>DIGEST&#45;&gt;User</title>
<path fill="none" stroke="#444444" d="M372.57,-337.1C395.94,-307.73 445.62,-250.25 500,-217.5 515.22,-208.33 620.83,-176.43 674.29,-160.58"/>
<polygon fill="#444444" stroke="#444444" points="675.14,-162.88 681.16,-158.54 673.75,-158.18 675.14,-162.88"/>
<text text-anchor="middle" x="562" y="-220.3" font-family="Helvetica,sans-Serif" font-size="9.00">deliver digest</text>
</g>
<!-- LEARN -->
<g id="node11" class="node">
<title>LEARN</title>
<polygon fill="#f8fbff" stroke="#2f5597" points="737.15,-922.5 675.15,-922.5 675.15,-918.5 671.15,-918.5 671.15,-914.5 675.15,-914.5 675.15,-894.5 671.15,-894.5 671.15,-890.5 675.15,-890.5 675.15,-886.5 737.15,-886.5 737.15,-922.5"/>
<polyline fill="none" stroke="#2f5597" points="675.15,-918.5 679.15,-918.5 679.15,-914.5 675.15,-914.5 "/>
<polyline fill="none" stroke="#2f5597" points="675.15,-894.5 679.15,-894.5 679.15,-890.5 675.15,-890.5 "/>
<text text-anchor="middle" x="706.15" y="-907.7" font-family="Helvetica,sans-Serif" font-size="11.00">Learning</text>
<text text-anchor="middle" x="706.15" y="-895.7" font-family="Helvetica,sans-Serif" font-size="11.00">Agent</text>
</g>
<!-- OBSAG&#45;&gt;LEARN -->
<g id="edge22" class="edge">
<title>OBSAG&#45;&gt;LEARN</title>
<path fill="none" stroke="#444444" d="M401.7,-914.13C470.21,-911.96 602.63,-907.75 667.49,-905.7"/>
<polygon fill="#444444" stroke="#444444" points="667.77,-908.14 674.69,-905.47 667.61,-903.24 667.77,-908.14"/>
<text text-anchor="middle" x="562" y="-913.3" font-family="Helvetica,sans-Serif" font-size="9.00">provide evidence</text>
</g>
<!-- RUNTIMEOBS -->
<g id="node13" class="node">
<title>RUNTIMEOBS</title>
<path fill="#fffce8" stroke="#666666" d="M750.15,-1025.52C750.15,-1027.86 730.43,-1029.75 706.15,-1029.75 681.88,-1029.75 662.15,-1027.86 662.15,-1025.52 662.15,-1025.52 662.15,-987.48 662.15,-987.48 662.15,-985.14 681.88,-983.25 706.15,-983.25 730.43,-983.25 750.15,-985.14 750.15,-987.48 750.15,-987.48 750.15,-1025.52 750.15,-1025.52"/>
<path fill="none" stroke="#666666" d="M750.15,-1025.52C750.15,-1023.19 730.43,-1021.3 706.15,-1021.3 681.88,-1021.3 662.15,-1023.19 662.15,-1025.52"/>
<text text-anchor="middle" x="706.15" y="-1009.7" font-family="Helvetica,sans-Serif" font-size="11.00">Runtime</text>
<text text-anchor="middle" x="706.15" y="-997.7" font-family="Helvetica,sans-Serif" font-size="11.00">Observations</text>
</g>
<!-- OBSAG&#45;&gt;RUNTIMEOBS -->
<g id="edge21" class="edge">
<title>OBSAG&#45;&gt;RUNTIMEOBS</title>
<path fill="none" stroke="#444444" d="M401.7,-926.84C466.1,-943.75 586.97,-975.48 655.12,-993.37"/>
<polygon fill="#444444" stroke="#444444" points="654.56,-995.75 661.95,-995.16 655.8,-991.01 654.56,-995.75"/>
<text text-anchor="middle" x="562" y="-987.3" font-family="Helvetica,sans-Serif" font-size="9.00">store observations</text>
</g>
<!-- LEARN&#45;&gt;REPO -->
<g id="edge23" class="edge">
<title>LEARN&#45;&gt;REPO</title>
<path fill="none" stroke="#444444" d="M723.86,-886.26C767.17,-838.98 883.3,-712.2 935.62,-655.09"/>
<polygon fill="#444444" stroke="#444444" points="937.56,-656.6 940.48,-649.78 933.95,-653.29 937.56,-656.6"/>
<text text-anchor="middle" x="826.81" y="-817.3" font-family="Helvetica,sans-Serif" font-size="9.00">learning artifacts</text>
</g>
<!-- NOTE_REPO -->
<g id="node17" class="node">
<title>NOTE_REPO</title>
<polygon fill="#fffce8" stroke="#666666" points="1216.31,-661.5 1088.31,-661.5 1088.31,-591.5 1222.31,-591.5 1222.31,-655.5 1216.31,-661.5"/>
<polyline fill="none" stroke="#666666" points="1216.31,-661.5 1216.31,-655.5 "/>
<polyline fill="none" stroke="#666666" points="1222.31,-655.5 1216.31,-655.5 "/>
<text text-anchor="middle" x="1155.31" y="-647.7" font-family="Helvetica,sans-Serif" font-size="11.00">Repository acts as:</text>
<text text-anchor="middle" x="1155.31" y="-635.7" font-family="Helvetica,sans-Serif" font-size="11.00">• memory</text>
<text text-anchor="middle" x="1155.31" y="-623.7" font-family="Helvetica,sans-Serif" font-size="11.00">• semantic grounding</text>
<text text-anchor="middle" x="1155.31" y="-611.7" font-family="Helvetica,sans-Serif" font-size="11.00">• trust boundary</text>
<text text-anchor="middle" x="1155.31" y="-599.7" font-family="Helvetica,sans-Serif" font-size="11.00">• learning surface</text>
</g>
<!-- REPO&#45;&gt;NOTE_REPO -->
<g id="edge25" class="edge">
<title>REPO&#45;&gt;NOTE_REPO</title>
<path fill="none" stroke="#888888" stroke-dasharray="5,2" d="M1033.39,-626.5C1051.25,-626.5 1070.41,-626.5 1088.09,-626.5"/>
</g>
</g>
</svg>
