<?xml version="1.0" encoding="UTF-8" standalone="no"?>
<!DOCTYPE svg PUBLIC "-//W3C//DTD SVG 1.1//EN"
 "http://www.w3.org/Graphics/SVG/1.1/DTD/svg11.dtd">
<!-- Generated by graphviz version 2.43.0 (0)
 -->
<!-- Title: PENA_UML_07 Pages: 1 -->
<svg width="854pt" height="1409pt"
 viewBox="0.00 0.00 853.90 1409.40" xmlns="http://www.w3.org/2000/svg" xmlns:xlink="http://www.w3.org/1999/xlink">
<g id="graph0" class="graph" transform="scale(1 1) rotate(0) translate(25.2 1384.2)">
<title>PENA_UML_07</title>
<polygon fill="white" stroke="transparent" points="-25.2,25.2 -25.2,-1384.2 828.7,-1384.2 828.7,25.2 -25.2,25.2"/>
<text text-anchor="middle" x="401.75" y="-1335.8" font-family="Helvetica,sans-Serif" font-size="24.00">PENA&#45;Agent — Runtime Activity Pipeline</text>
<!-- START -->
<g id="node1" class="node">
<title>START</title>
<ellipse fill="#444444" stroke="#444444" cx="443" cy="-1317" rx="8" ry="8"/>
</g>
<!-- UC -->
<g id="node2" class="node">
<title>UC</title>
<path fill="#f8fbff" stroke="#2f5597" d="M494.5,-1268C494.5,-1268 391.5,-1268 391.5,-1268 385.5,-1268 379.5,-1262 379.5,-1256 379.5,-1256 379.5,-1244 379.5,-1244 379.5,-1238 385.5,-1232 391.5,-1232 391.5,-1232 494.5,-1232 494.5,-1232 500.5,-1232 506.5,-1238 506.5,-1244 506.5,-1244 506.5,-1256 506.5,-1256 506.5,-1262 500.5,-1268 494.5,-1268"/>
<text text-anchor="middle" x="443" y="-1246.9" font-family="Helvetica,sans-Serif" font-size="12.00">Load user context</text>
</g>
<!-- START&#45;&gt;UC -->
<g id="edge1" class="edge">
<title>START&#45;&gt;UC</title>
<path fill="none" stroke="#444444" d="M443,-1308.8C443,-1300.9 443,-1287.79 443,-1276.05"/>
<polygon fill="#444444" stroke="#444444" points="445.63,-1275.73 443,-1268.23 440.38,-1275.73 445.63,-1275.73"/>
</g>
<!-- PC -->
<g id="node3" class="node">
<title>PC</title>
<path fill="#f8fbff" stroke="#2f5597" d="M494.5,-1191C494.5,-1191 391.5,-1191 391.5,-1191 385.5,-1191 379.5,-1185 379.5,-1179 379.5,-1179 379.5,-1165 379.5,-1165 379.5,-1159 385.5,-1153 391.5,-1153 391.5,-1153 494.5,-1153 494.5,-1153 500.5,-1153 506.5,-1159 506.5,-1165 506.5,-1165 506.5,-1179 506.5,-1179 506.5,-1185 500.5,-1191 494.5,-1191"/>
<text text-anchor="middle" x="443" y="-1175.4" font-family="Helvetica,sans-Serif" font-size="12.00">Load project /</text>
<text text-anchor="middle" x="443" y="-1162.4" font-family="Helvetica,sans-Serif" font-size="12.00">repository context</text>
</g>
<!-- UC&#45;&gt;PC -->
<g id="edge2" class="edge">
<title>UC&#45;&gt;PC</title>
<path fill="none" stroke="#444444" d="M443,-1231.75C443,-1222.03 443,-1209.68 443,-1198.82"/>
<polygon fill="#444444" stroke="#444444" points="445.63,-1198.74 443,-1191.24 440.38,-1198.74 445.63,-1198.74"/>
</g>
<!-- RA -->
<g id="node4" class="node">
<title>RA</title>
<path fill="#f8fbff" stroke="#2f5597" d="M496.5,-1112C496.5,-1112 389.5,-1112 389.5,-1112 383.5,-1112 377.5,-1106 377.5,-1100 377.5,-1100 377.5,-1086 377.5,-1086 377.5,-1080 383.5,-1074 389.5,-1074 389.5,-1074 496.5,-1074 496.5,-1074 502.5,-1074 508.5,-1080 508.5,-1086 508.5,-1086 508.5,-1100 508.5,-1100 508.5,-1106 502.5,-1112 496.5,-1112"/>
<text text-anchor="middle" x="443" y="-1096.4" font-family="Helvetica,sans-Serif" font-size="12.00">Retrieve candidate</text>
<text text-anchor="middle" x="443" y="-1083.4" font-family="Helvetica,sans-Serif" font-size="12.00">articles</text>
</g>
<!-- PC&#45;&gt;RA -->
<g id="edge3" class="edge">
<title>PC&#45;&gt;RA</title>
<path fill="none" stroke="#444444" d="M443,-1152.75C443,-1142.88 443,-1130.51 443,-1119.68"/>
<polygon fill="#444444" stroke="#444444" points="445.63,-1119.62 443,-1112.12 440.38,-1119.62 445.63,-1119.62"/>
</g>
<!-- NM -->
<g id="node5" class="node">
<title>NM</title>
<path fill="#f8fbff" stroke="#2f5597" d="M491,-1033C491,-1033 395,-1033 395,-1033 389,-1033 383,-1027 383,-1021 383,-1021 383,-1007 383,-1007 383,-1001 389,-995 395,-995 395,-995 491,-995 491,-995 497,-995 503,-1001 503,-1007 503,-1007 503,-1021 503,-1021 503,-1027 497,-1033 491,-1033"/>
<text text-anchor="middle" x="443" y="-1017.4" font-family="Helvetica,sans-Serif" font-size="12.00">Normalize article</text>
<text text-anchor="middle" x="443" y="-1004.4" font-family="Helvetica,sans-Serif" font-size="12.00">metadata</text>
</g>
<!-- RA&#45;&gt;NM -->
<g id="edge4" class="edge">
<title>RA&#45;&gt;NM</title>
<path fill="none" stroke="#444444" d="M443,-1073.75C443,-1063.88 443,-1051.51 443,-1040.68"/>
<polygon fill="#444444" stroke="#444444" points="445.63,-1040.62 443,-1033.12 440.38,-1040.62 445.63,-1040.62"/>
</g>
<!-- DD -->
<g id="node6" class="node">
<title>DD</title>
<path fill="#f8fbff" stroke="#2f5597" d="M505,-954C505,-954 381,-954 381,-954 375,-954 369,-948 369,-942 369,-942 369,-928 369,-928 369,-922 375,-916 381,-916 381,-916 505,-916 505,-916 511,-916 517,-922 517,-928 517,-928 517,-942 517,-942 517,-948 511,-954 505,-954"/>
<text text-anchor="middle" x="443" y="-938.4" font-family="Helvetica,sans-Serif" font-size="12.00">Deduplicate repeated</text>
<text text-anchor="middle" x="443" y="-925.4" font-family="Helvetica,sans-Serif" font-size="12.00">content</text>
</g>
<!-- NM&#45;&gt;DD -->
<g id="edge5" class="edge">
<title>NM&#45;&gt;DD</title>
<path fill="none" stroke="#444444" d="M443,-994.75C443,-984.88 443,-972.51 443,-961.68"/>
<polygon fill="#444444" stroke="#444444" points="445.63,-961.62 443,-954.12 440.38,-961.62 445.63,-961.62"/>
</g>
<!-- CA -->
<g id="node7" class="node">
<title>CA</title>
<path fill="#f8fbff" stroke="#2f5597" d="M472.5,-875C472.5,-875 413.5,-875 413.5,-875 407.5,-875 401.5,-869 401.5,-863 401.5,-863 401.5,-849 401.5,-849 401.5,-843 407.5,-837 413.5,-837 413.5,-837 472.5,-837 472.5,-837 478.5,-837 484.5,-843 484.5,-849 484.5,-849 484.5,-863 484.5,-863 484.5,-869 478.5,-875 472.5,-875"/>
<text text-anchor="middle" x="443" y="-859.4" font-family="Helvetica,sans-Serif" font-size="12.00">Categorize</text>
<text text-anchor="middle" x="443" y="-846.4" font-family="Helvetica,sans-Serif" font-size="12.00">articles</text>
</g>
<!-- DD&#45;&gt;CA -->
<g id="edge6" class="edge">
<title>DD&#45;&gt;CA</title>
<path fill="none" stroke="#444444" d="M443,-915.75C443,-905.88 443,-893.51 443,-882.68"/>
<polygon fill="#444444" stroke="#444444" points="445.63,-882.62 443,-875.12 440.38,-882.62 445.63,-882.62"/>
</g>
<!-- TR -->
<g id="node8" class="node">
<title>TR</title>
<path fill="#f8fbff" stroke="#2f5597" d="M488,-796C488,-796 398,-796 398,-796 392,-796 386,-790 386,-784 386,-784 386,-770 386,-770 386,-764 392,-758 398,-758 398,-758 488,-758 488,-758 494,-758 500,-764 500,-770 500,-770 500,-784 500,-784 500,-790 494,-796 488,-796"/>
<text text-anchor="middle" x="443" y="-780.4" font-family="Helvetica,sans-Serif" font-size="12.00">Evaluate source</text>
<text text-anchor="middle" x="443" y="-767.4" font-family="Helvetica,sans-Serif" font-size="12.00">trust</text>
</g>
<!-- CA&#45;&gt;TR -->
<g id="edge7" class="edge">
<title>CA&#45;&gt;TR</title>
<path fill="none" stroke="#444444" d="M443,-836.75C443,-826.88 443,-814.51 443,-803.68"/>
<polygon fill="#444444" stroke="#444444" points="445.63,-803.62 443,-796.12 440.38,-803.62 445.63,-803.62"/>
</g>
<!-- GS -->
<g id="node9" class="node">
<title>GS</title>
<path fill="#f8fbff" stroke="#2f5597" d="M473.5,-717C473.5,-717 412.5,-717 412.5,-717 406.5,-717 400.5,-711 400.5,-705 400.5,-705 400.5,-691 400.5,-691 400.5,-685 406.5,-679 412.5,-679 412.5,-679 473.5,-679 473.5,-679 479.5,-679 485.5,-685 485.5,-691 485.5,-691 485.5,-705 485.5,-705 485.5,-711 479.5,-717 473.5,-717"/>
<text text-anchor="middle" x="443" y="-701.4" font-family="Helvetica,sans-Serif" font-size="12.00">Generate</text>
<text text-anchor="middle" x="443" y="-688.4" font-family="Helvetica,sans-Serif" font-size="12.00">summaries</text>
</g>
<!-- TR&#45;&gt;GS -->
<g id="edge8" class="edge">
<title>TR&#45;&gt;GS</title>
<path fill="none" stroke="#444444" d="M443,-757.75C443,-747.88 443,-735.51 443,-724.68"/>
<polygon fill="#444444" stroke="#444444" points="445.63,-724.62 443,-717.12 440.38,-724.62 445.63,-724.62"/>
</g>
<!-- RR -->
<g id="node10" class="node">
<title>RR</title>
<path fill="#f8fbff" stroke="#2f5597" d="M469.5,-638C469.5,-638 416.5,-638 416.5,-638 410.5,-638 404.5,-632 404.5,-626 404.5,-626 404.5,-612 404.5,-612 404.5,-606 410.5,-600 416.5,-600 416.5,-600 469.5,-600 469.5,-600 475.5,-600 481.5,-606 481.5,-612 481.5,-612 481.5,-626 481.5,-626 481.5,-632 475.5,-638 469.5,-638"/>
<text text-anchor="middle" x="443" y="-622.4" font-family="Helvetica,sans-Serif" font-size="12.00">Rank</text>
<text text-anchor="middle" x="443" y="-609.4" font-family="Helvetica,sans-Serif" font-size="12.00">relevance</text>
</g>
<!-- GS&#45;&gt;RR -->
<g id="edge9" class="edge">
<title>GS&#45;&gt;RR</title>
<path fill="none" stroke="#444444" d="M443,-678.75C443,-668.88 443,-656.51 443,-645.68"/>
<polygon fill="#444444" stroke="#444444" points="445.63,-645.62 443,-638.12 440.38,-645.62 445.63,-645.62"/>
</g>
<!-- GD -->
<g id="node11" class="node">
<title>GD</title>
<path fill="#f8fbff" stroke="#2f5597" d="M501,-559C501,-559 385,-559 385,-559 379,-559 373,-553 373,-547 373,-547 373,-533 373,-533 373,-527 379,-521 385,-521 385,-521 501,-521 501,-521 507,-521 513,-527 513,-533 513,-533 513,-547 513,-547 513,-553 507,-559 501,-559"/>
<text text-anchor="middle" x="443" y="-543.4" font-family="Helvetica,sans-Serif" font-size="12.00">Generate structured</text>
<text text-anchor="middle" x="443" y="-530.4" font-family="Helvetica,sans-Serif" font-size="12.00">digest</text>
</g>
<!-- RR&#45;&gt;GD -->
<g id="edge10" class="edge">
<title>RR&#45;&gt;GD</title>
<path fill="none" stroke="#444444" d="M443,-599.75C443,-589.88 443,-577.51 443,-566.68"/>
<polygon fill="#444444" stroke="#444444" points="445.63,-566.62 443,-559.12 440.38,-566.62 445.63,-566.62"/>
</g>
<!-- PD -->
<g id="node12" class="node">
<title>PD</title>
<path fill="#f8fbff" stroke="#2f5597" d="M332.5,-480C332.5,-480 259.5,-480 259.5,-480 253.5,-480 247.5,-474 247.5,-468 247.5,-468 247.5,-454 247.5,-454 247.5,-448 253.5,-442 259.5,-442 259.5,-442 332.5,-442 332.5,-442 338.5,-442 344.5,-448 344.5,-454 344.5,-454 344.5,-468 344.5,-468 344.5,-474 338.5,-480 332.5,-480"/>
<text text-anchor="middle" x="296" y="-464.4" font-family="Helvetica,sans-Serif" font-size="12.00">Persist digest</text>
<text text-anchor="middle" x="296" y="-451.4" font-family="Helvetica,sans-Serif" font-size="12.00">output</text>
</g>
<!-- GD&#45;&gt;PD -->
<g id="edge11" class="edge">
<title>GD&#45;&gt;PD</title>
<path fill="none" stroke="#444444" d="M408.54,-520.95C387.23,-509.79 359.77,-495.4 337.3,-483.63"/>
<polygon fill="#444444" stroke="#444444" points="338.37,-481.23 330.5,-480.07 335.93,-485.88 338.37,-481.23"/>
</g>
<!-- NOTE_FLOW -->
<g id="node19" class="node">
<title>NOTE_FLOW</title>
<polygon fill="#fffce8" stroke="#666666" points="797.5,-479 376.5,-479 376.5,-443 803.5,-443 803.5,-473 797.5,-479"/>
<polyline fill="none" stroke="#666666" points="797.5,-479 797.5,-473 "/>
<polyline fill="none" stroke="#666666" points="803.5,-473 797.5,-473 "/>
<text text-anchor="middle" x="590" y="-464.2" font-family="Helvetica,sans-Serif" font-size="11.00">First executable flow:</text>
<text text-anchor="middle" x="590" y="-452.2" font-family="Helvetica,sans-Serif" font-size="11.00">context → articles → trust → summary → digest → observations → learning</text>
</g>
<!-- GD&#45;&gt;NOTE_FLOW -->
<g id="edge19" class="edge">
<title>GD&#45;&gt;NOTE_FLOW</title>
<path fill="none" stroke="#888888" stroke-dasharray="5,2" d="M477.46,-520.95C501.57,-508.32 533.55,-491.57 557.26,-479.15"/>
</g>
<!-- RO -->
<g id="node13" class="node">
<title>RO</title>
<path fill="#f8fbff" stroke="#2f5597" d="M353.5,-401C353.5,-401 238.5,-401 238.5,-401 232.5,-401 226.5,-395 226.5,-389 226.5,-389 226.5,-375 226.5,-375 226.5,-369 232.5,-363 238.5,-363 238.5,-363 353.5,-363 353.5,-363 359.5,-363 365.5,-369 365.5,-375 365.5,-375 365.5,-389 365.5,-389 365.5,-395 359.5,-401 353.5,-401"/>
<text text-anchor="middle" x="296" y="-385.4" font-family="Helvetica,sans-Serif" font-size="12.00">Record observability</text>
<text text-anchor="middle" x="296" y="-372.4" font-family="Helvetica,sans-Serif" font-size="12.00">events</text>
</g>
<!-- PD&#45;&gt;RO -->
<g id="edge12" class="edge">
<title>PD&#45;&gt;RO</title>
<path fill="none" stroke="#444444" d="M296,-441.75C296,-431.88 296,-419.51 296,-408.68"/>
<polygon fill="#444444" stroke="#444444" points="298.63,-408.62 296,-401.12 293.38,-408.62 298.63,-408.62"/>
</g>
<!-- FB -->
<g id="node14" class="node">
<title>FB</title>
<path fill="#fffce8" stroke="#666666" d="M165.7,-317.95C165.7,-317.95 82.3,-288.05 82.3,-288.05 76.65,-286.02 76.65,-281.98 82.3,-279.95 82.3,-279.95 165.7,-250.05 165.7,-250.05 171.35,-248.02 182.65,-248.02 188.3,-250.05 188.3,-250.05 271.7,-279.95 271.7,-279.95 277.35,-281.98 277.35,-286.02 271.7,-288.05 271.7,-288.05 188.3,-317.95 188.3,-317.95 182.65,-319.98 171.35,-319.98 165.7,-317.95"/>
<text text-anchor="middle" x="177" y="-287.4" font-family="Helvetica,sans-Serif" font-size="12.00">User feedback</text>
<text text-anchor="middle" x="177" y="-274.4" font-family="Helvetica,sans-Serif" font-size="12.00">available?</text>
</g>
<!-- RO&#45;&gt;FB -->
<g id="edge13" class="edge">
<title>RO&#45;&gt;FB</title>
<path fill="none" stroke="#444444" d="M273.62,-362.94C257.14,-349.65 234.35,-331.26 215.04,-315.69"/>
<polygon fill="#444444" stroke="#444444" points="216.65,-313.62 209.17,-310.95 213.36,-317.7 216.65,-313.62"/>
</g>
<!-- NOTE_POC -->
<g id="node20" class="node">
<title>NOTE_POC</title>
<polygon fill="#fffce8" stroke="#666666" points="508.5,-308 315.5,-308 315.5,-260 514.5,-260 514.5,-302 508.5,-308"/>
<polyline fill="none" stroke="#666666" points="508.5,-308 508.5,-302 "/>
<polyline fill="none" stroke="#666666" points="514.5,-302 508.5,-302 "/>
<text text-anchor="middle" x="415" y="-293.2" font-family="Helvetica,sans-Serif" font-size="11.00">Small enough for POC execution,</text>
<text text-anchor="middle" x="415" y="-281.2" font-family="Helvetica,sans-Serif" font-size="11.00">explicit enough for AI&#45;readable</text>
<text text-anchor="middle" x="415" y="-269.2" font-family="Helvetica,sans-Serif" font-size="11.00">specification context.</text>
</g>
<!-- RO&#45;&gt;NOTE_POC -->
<g id="edge20" class="edge">
<title>RO&#45;&gt;NOTE_POC</title>
<path fill="none" stroke="#888888" stroke-dasharray="5,2" d="M318.38,-362.94C337.64,-347.41 365.53,-324.91 386.4,-308.07"/>
</g>
<!-- CF -->
<g id="node15" class="node">
<title>CF</title>
<path fill="#f8fbff" stroke="#2f5597" d="M168,-195C168,-195 12,-195 12,-195 6,-195 0,-189 0,-183 0,-183 0,-156 0,-156 0,-150 6,-144 12,-144 12,-144 168,-144 168,-144 174,-144 180,-150 180,-156 180,-156 180,-183 180,-183 180,-189 174,-195 168,-195"/>
<text text-anchor="middle" x="90" y="-179.4" font-family="Helvetica,sans-Serif" font-size="12.00">Capture feedback</text>
<text text-anchor="middle" x="90" y="-166.4" font-family="Helvetica,sans-Serif" font-size="12.00">Create learning signal</text>
<text text-anchor="middle" x="90" y="-153.4" font-family="Helvetica,sans-Serif" font-size="12.00">Update context candidates</text>
</g>
<!-- FB&#45;&gt;CF -->
<g id="edge14" class="edge">
<title>FB&#45;&gt;CF</title>
<path fill="none" stroke="#444444" d="M154.6,-254.03C142.15,-237.94 126.67,-217.91 113.98,-201.51"/>
<polygon fill="#444444" stroke="#444444" points="115.75,-199.51 109.09,-195.18 111.6,-202.72 115.75,-199.51"/>
<text text-anchor="middle" x="140" y="-218" font-family="Helvetica,sans-Serif" font-size="10.00">yes</text>
</g>
<!-- UR -->
<g id="node16" class="node">
<title>UR</title>
<path fill="#f8fbff" stroke="#2f5597" d="M306,-188.5C306,-188.5 224,-188.5 224,-188.5 218,-188.5 212,-182.5 212,-176.5 212,-176.5 212,-162.5 212,-162.5 212,-156.5 218,-150.5 224,-150.5 224,-150.5 306,-150.5 306,-150.5 312,-150.5 318,-156.5 318,-162.5 318,-162.5 318,-176.5 318,-176.5 318,-182.5 312,-188.5 306,-188.5"/>
<text text-anchor="middle" x="265" y="-172.9" font-family="Helvetica,sans-Serif" font-size="12.00">Mark digest as</text>
<text text-anchor="middle" x="265" y="-159.9" font-family="Helvetica,sans-Serif" font-size="12.00">unreviewed</text>
</g>
<!-- FB&#45;&gt;UR -->
<g id="edge15" class="edge">
<title>FB&#45;&gt;UR</title>
<path fill="none" stroke="#444444" d="M199.66,-254.03C213.99,-235.71 232.31,-212.29 245.9,-194.91"/>
<polygon fill="#444444" stroke="#444444" points="248.13,-196.33 250.68,-188.81 243.99,-193.1 248.13,-196.33"/>
<text text-anchor="middle" x="235.5" y="-218" font-family="Helvetica,sans-Serif" font-size="10.00">no</text>
</g>
<!-- NI -->
<g id="node17" class="node">
<title>NI</title>
<path fill="#f8fbff" stroke="#2f5597" d="M219.5,-103C219.5,-103 134.5,-103 134.5,-103 128.5,-103 122.5,-97 122.5,-91 122.5,-91 122.5,-77 122.5,-77 122.5,-71 128.5,-65 134.5,-65 134.5,-65 219.5,-65 219.5,-65 225.5,-65 231.5,-71 231.5,-77 231.5,-77 231.5,-91 231.5,-91 231.5,-97 225.5,-103 219.5,-103"/>
<text text-anchor="middle" x="177" y="-87.4" font-family="Helvetica,sans-Serif" font-size="12.00">Prepare next</text>
<text text-anchor="middle" x="177" y="-74.4" font-family="Helvetica,sans-Serif" font-size="12.00">iteration inputs</text>
</g>
<!-- CF&#45;&gt;NI -->
<g id="edge16" class="edge">
<title>CF&#45;&gt;NI</title>
<path fill="none" stroke="#444444" d="M115.63,-143.9C127.35,-132.65 141.16,-119.4 152.71,-108.32"/>
<polygon fill="#444444" stroke="#444444" points="154.58,-110.15 158.18,-103.07 150.95,-106.37 154.58,-110.15"/>
</g>
<!-- UR&#45;&gt;NI -->
<g id="edge17" class="edge">
<title>UR&#45;&gt;NI</title>
<path fill="none" stroke="#444444" d="M245.91,-150.38C232.99,-138.13 215.81,-121.82 201.83,-108.56"/>
<polygon fill="#444444" stroke="#444444" points="203.3,-106.34 196.06,-103.08 199.69,-110.15 203.3,-106.34"/>
</g>
<!-- STOP -->
<g id="node18" class="node">
<title>STOP</title>
<ellipse fill="#444444" stroke="#444444" cx="177" cy="-12" rx="8" ry="8"/>
<ellipse fill="none" stroke="#444444" cx="177" cy="-12" rx="12" ry="12"/>
</g>
<!-- NI&#45;&gt;STOP -->
<g id="edge18" class="edge">
<title>NI&#45;&gt;STOP</title>
<path fill="none" stroke="#444444" d="M177,-64.97C177,-54.87 177,-42.28 177,-32.03"/>
<polygon fill="#444444" stroke="#444444" points="179.63,-31.89 177,-24.39 174.38,-31.89 179.63,-31.89"/>
</g>
</g>
</svg>
