<?xml version="1.0" encoding="UTF-8" standalone="no"?>
<!DOCTYPE svg PUBLIC "-//W3C//DTD SVG 1.1//EN"
 "http://www.w3.org/Graphics/SVG/1.1/DTD/svg11.dtd">
<!-- Generated by graphviz version 2.43.0 (0)
 -->
<!-- Title: PENA_UML_06 Pages: 1 -->
<svg width="1884pt" height="328pt"
 viewBox="0.00 0.00 1883.78 328.40" xmlns="http://www.w3.org/2000/svg" xmlns:xlink="http://www.w3.org/1999/xlink">
<g id="graph0" class="graph" transform="scale(1 1) rotate(0) translate(25.2 303.2)">
<title>PENA_UML_06</title>
<polygon fill="white" stroke="transparent" points="-25.2,25.2 -25.2,-303.2 1858.58,-303.2 1858.58,25.2 -25.2,25.2"/>
<text text-anchor="middle" x="916.69" y="-254.8" font-family="Helvetica,sans-Serif" font-size="24.00">PENA&#45;Agent — Feedback and Learning Loop</text>
<!-- User -->
<g id="node1" class="node">
<title>User</title>
<ellipse fill="#f5f5f5" stroke="#444444" cx="31.96" cy="-213" rx="31.93" ry="18"/>
<text text-anchor="middle" x="31.96" y="-209.9" font-family="Helvetica,sans-Serif" font-size="12.00">User</text>
</g>
<!-- Runtime -->
<g id="node2" class="node">
<title>Runtime</title>
<path fill="#f8fbff" stroke="#2f5597" d="M291.15,-232C291.15,-232 247.15,-232 247.15,-232 241.15,-232 235.15,-226 235.15,-220 235.15,-220 235.15,-206 235.15,-206 235.15,-200 241.15,-194 247.15,-194 247.15,-194 291.15,-194 291.15,-194 297.15,-194 303.15,-200 303.15,-206 303.15,-206 303.15,-220 303.15,-220 303.15,-226 297.15,-232 291.15,-232"/>
<text text-anchor="middle" x="269.15" y="-216.4" font-family="Helvetica,sans-Serif" font-size="12.00">PENA</text>
<text text-anchor="middle" x="269.15" y="-203.4" font-family="Helvetica,sans-Serif" font-size="12.00">Runtime</text>
</g>
<!-- User&#45;&gt;Runtime -->
<g id="edge1" class="edge">
<title>User&#45;&gt;Runtime</title>
<path fill="none" stroke="#444444" d="M64.2,-213C106.13,-213 180.71,-213 227.13,-213"/>
<polygon fill="#444444" stroke="#444444" points="227.4,-215.63 234.9,-213 227.4,-210.38 227.4,-215.63"/>
<text text-anchor="middle" x="135.43" y="-227" font-family="Helvetica,sans-Serif" font-size="10.00">Use digest</text>
<text text-anchor="middle" x="135.43" y="-216" font-family="Helvetica,sans-Serif" font-size="10.00">provide feedback</text>
</g>
<!-- OBS -->
<g id="node3" class="node">
<title>OBS</title>
<path fill="#f8fbff" stroke="#2f5597" d="M553.38,-139C553.38,-139 480.38,-139 480.38,-139 474.38,-139 468.38,-133 468.38,-127 468.38,-127 468.38,-113 468.38,-113 468.38,-107 474.38,-101 480.38,-101 480.38,-101 553.38,-101 553.38,-101 559.38,-101 565.38,-107 565.38,-113 565.38,-113 565.38,-127 565.38,-127 565.38,-133 559.38,-139 553.38,-139"/>
<text text-anchor="middle" x="516.88" y="-123.4" font-family="Helvetica,sans-Serif" font-size="12.00">Observability</text>
<text text-anchor="middle" x="516.88" y="-110.4" font-family="Helvetica,sans-Serif" font-size="12.00">Engine</text>
</g>
<!-- Runtime&#45;&gt;OBS -->
<g id="edge2" class="edge">
<title>Runtime&#45;&gt;OBS</title>
<path fill="none" stroke="#444444" d="M303.47,-195.28C320.27,-186.73 341.12,-176.68 360.38,-169 393.1,-155.95 430.76,-144.01 460.82,-135.18"/>
<polygon fill="#444444" stroke="#444444" points="461.82,-137.62 468.29,-133 460.35,-132.58 461.82,-137.62"/>
<text text-anchor="middle" x="399.88" y="-194" font-family="Helvetica,sans-Serif" font-size="10.00">Emit events</text>
<text text-anchor="middle" x="399.88" y="-183" font-family="Helvetica,sans-Serif" font-size="10.00">outputs</text>
<text text-anchor="middle" x="399.88" y="-172" font-family="Helvetica,sans-Serif" font-size="10.00">quality signals</text>
</g>
<!-- Review -->
<g id="node4" class="node">
<title>Review</title>
<path fill="#f8fbff" stroke="#2f5597" d="M776.38,-150C776.38,-150 732.38,-150 732.38,-150 726.38,-150 720.38,-144 720.38,-138 720.38,-138 720.38,-124 720.38,-124 720.38,-118 726.38,-112 732.38,-112 732.38,-112 776.38,-112 776.38,-112 782.38,-112 788.38,-118 788.38,-124 788.38,-124 788.38,-138 788.38,-138 788.38,-144 782.38,-150 776.38,-150"/>
<text text-anchor="middle" x="754.38" y="-134.4" font-family="Helvetica,sans-Serif" font-size="12.00">Review /</text>
<text text-anchor="middle" x="754.38" y="-121.4" font-family="Helvetica,sans-Serif" font-size="12.00">Validate</text>
</g>
<!-- OBS&#45;&gt;Review -->
<g id="edge4" class="edge">
<title>OBS&#45;&gt;Review</title>
<path fill="none" stroke="#444444" d="M565.54,-122.23C608.72,-124.24 671.68,-127.18 712.58,-129.09"/>
<polygon fill="#444444" stroke="#444444" points="712.59,-131.72 720.21,-129.45 712.84,-126.48 712.59,-131.72"/>
<text text-anchor="middle" x="616.88" y="-151" font-family="Helvetica,sans-Serif" font-size="10.00">Evidence</text>
<text text-anchor="middle" x="616.88" y="-140" font-family="Helvetica,sans-Serif" font-size="10.00">logs</text>
<text text-anchor="middle" x="616.88" y="-129" font-family="Helvetica,sans-Serif" font-size="10.00">metrics</text>
</g>
<!-- NOTE_OBS -->
<g id="node10" class="node">
<title>NOTE_OBS</title>
<polygon fill="#fffce8" stroke="#666666" points="834.38,-72 668.38,-72 668.38,0 840.38,0 840.38,-66 834.38,-72"/>
<polyline fill="none" stroke="#666666" points="834.38,-72 834.38,-66 "/>
<polyline fill="none" stroke="#666666" points="840.38,-66 834.38,-66 "/>
<text text-anchor="middle" x="754.38" y="-57.2" font-family="Helvetica,sans-Serif" font-size="11.00">Observability also watches:</text>
<text text-anchor="middle" x="754.38" y="-45.2" font-family="Helvetica,sans-Serif" font-size="11.00">• AI behavior</text>
<text text-anchor="middle" x="754.38" y="-33.2" font-family="Helvetica,sans-Serif" font-size="11.00">• context quality</text>
<text text-anchor="middle" x="754.38" y="-21.2" font-family="Helvetica,sans-Serif" font-size="11.00">• spec quality</text>
<text text-anchor="middle" x="754.38" y="-9.2" font-family="Helvetica,sans-Serif" font-size="11.00">• workflow signals</text>
</g>
<!-- OBS&#45;&gt;NOTE_OBS -->
<g id="edge10" class="edge">
<title>OBS&#45;&gt;NOTE_OBS</title>
<path fill="none" stroke="#888888" stroke-dasharray="5,2" d="M565.54,-103C594.97,-92.5 633.59,-78.73 668.16,-66.4"/>
</g>
<!-- Learn -->
<g id="node5" class="node">
<title>Learn</title>
<path fill="#f8fbff" stroke="#2f5597" d="M1010.88,-150C1010.88,-150 960.88,-150 960.88,-150 954.88,-150 948.88,-144 948.88,-138 948.88,-138 948.88,-124 948.88,-124 948.88,-118 954.88,-112 960.88,-112 960.88,-112 1010.88,-112 1010.88,-112 1016.88,-112 1022.88,-118 1022.88,-124 1022.88,-124 1022.88,-138 1022.88,-138 1022.88,-144 1016.88,-150 1010.88,-150"/>
<text text-anchor="middle" x="985.88" y="-134.4" font-family="Helvetica,sans-Serif" font-size="12.00">Learning</text>
<text text-anchor="middle" x="985.88" y="-121.4" font-family="Helvetica,sans-Serif" font-size="12.00">Extractor</text>
</g>
<!-- Review&#45;&gt;Learn -->
<g id="edge5" class="edge">
<title>Review&#45;&gt;Learn</title>
<path fill="none" stroke="#444444" d="M788.75,-131C828.98,-131 896.69,-131 941.09,-131"/>
<polygon fill="#444444" stroke="#444444" points="941.32,-133.63 948.82,-131 941.32,-128.38 941.32,-133.63"/>
<text text-anchor="middle" x="889.88" y="-156" font-family="Helvetica,sans-Serif" font-size="10.00">Lessons</text>
<text text-anchor="middle" x="889.88" y="-145" font-family="Helvetica,sans-Serif" font-size="10.00">patterns</text>
<text text-anchor="middle" x="889.88" y="-134" font-family="Helvetica,sans-Serif" font-size="10.00">risks</text>
</g>
<!-- KB -->
<g id="node6" class="node">
<title>KB</title>
<path fill="#fffce8" stroke="#666666" d="M1314.38,-152.48C1314.38,-155.11 1288.16,-157.25 1255.88,-157.25 1223.6,-157.25 1197.38,-155.11 1197.38,-152.48 1197.38,-152.48 1197.38,-109.52 1197.38,-109.52 1197.38,-106.89 1223.6,-104.75 1255.88,-104.75 1288.16,-104.75 1314.38,-106.89 1314.38,-109.52 1314.38,-109.52 1314.38,-152.48 1314.38,-152.48"/>
<path fill="none" stroke="#666666" d="M1314.38,-152.48C1314.38,-149.84 1288.16,-147.7 1255.88,-147.7 1223.6,-147.7 1197.38,-149.84 1197.38,-152.48"/>
<text text-anchor="middle" x="1255.88" y="-134.4" font-family="Helvetica,sans-Serif" font-size="12.00">Repository</text>
<text text-anchor="middle" x="1255.88" y="-121.4" font-family="Helvetica,sans-Serif" font-size="12.00">Knowledge Base</text>
</g>
<!-- Learn&#45;&gt;KB -->
<g id="edge6" class="edge">
<title>Learn&#45;&gt;KB</title>
<path fill="none" stroke="#444444" d="M1023.02,-131C1065.65,-131 1137.32,-131 1189.71,-131"/>
<polygon fill="#444444" stroke="#444444" points="1189.8,-133.63 1197.3,-131 1189.8,-128.38 1189.8,-133.63"/>
<text text-anchor="middle" x="1114.88" y="-134" font-family="Helvetica,sans-Serif" font-size="10.00">Store learning artifact</text>
</g>
<!-- Specs -->
<g id="node7" class="node">
<title>Specs</title>
<path fill="#f8fbff" stroke="#2f5597" d="M1552.88,-172C1552.88,-172 1515.88,-172 1515.88,-172 1509.88,-172 1503.88,-166 1503.88,-160 1503.88,-160 1503.88,-146 1503.88,-146 1503.88,-140 1509.88,-134 1515.88,-134 1515.88,-134 1552.88,-134 1552.88,-134 1558.88,-134 1564.88,-140 1564.88,-146 1564.88,-146 1564.88,-160 1564.88,-160 1564.88,-166 1558.88,-172 1552.88,-172"/>
<text text-anchor="middle" x="1534.38" y="-156.4" font-family="Helvetica,sans-Serif" font-size="12.00">Specs /</text>
<text text-anchor="middle" x="1534.38" y="-143.4" font-family="Helvetica,sans-Serif" font-size="12.00">UML</text>
</g>
<!-- KB&#45;&gt;Specs -->
<g id="edge7" class="edge">
<title>KB&#45;&gt;Specs</title>
<path fill="none" stroke="#444444" d="M1314.51,-135.59C1368.97,-139.92 1449.08,-146.29 1495.77,-150.01"/>
<polygon fill="#444444" stroke="#444444" points="1495.84,-152.65 1503.53,-150.62 1496.26,-147.41 1495.84,-152.65"/>
<text text-anchor="middle" x="1381.38" y="-169" font-family="Helvetica,sans-Serif" font-size="10.00">Update context</text>
<text text-anchor="middle" x="1381.38" y="-158" font-family="Helvetica,sans-Serif" font-size="10.00">constraints</text>
<text text-anchor="middle" x="1381.38" y="-147" font-family="Helvetica,sans-Serif" font-size="10.00">models</text>
</g>
<!-- NOTE_KB -->
<g id="node11" class="node">
<title>NOTE_KB</title>
<polygon fill="#fffce8" stroke="#666666" points="1614.38,-93.5 1448.38,-93.5 1448.38,-20.5 1620.38,-20.5 1620.38,-87.5 1614.38,-93.5"/>
<polyline fill="none" stroke="#666666" points="1614.38,-93.5 1614.38,-87.5 "/>
<polyline fill="none" stroke="#666666" points="1620.38,-87.5 1614.38,-87.5 "/>
<text text-anchor="middle" x="1534.38" y="-78.7" font-family="Helvetica,sans-Serif" font-size="11.00">Learning becomes</text>
<text text-anchor="middle" x="1534.38" y="-66.7" font-family="Helvetica,sans-Serif" font-size="11.00">persistent context.</text>
<text text-anchor="middle" x="1534.38" y="-41.7" font-family="Helvetica,sans-Serif" font-size="11.00">The repository accumulates</text>
<text text-anchor="middle" x="1534.38" y="-29.7" font-family="Helvetica,sans-Serif" font-size="11.00">organizational memory.</text>
</g>
<!-- KB&#45;&gt;NOTE_KB -->
<g id="edge11" class="edge">
<title>KB&#45;&gt;NOTE_KB</title>
<path fill="none" stroke="#888888" stroke-dasharray="5,2" d="M1314.51,-115.58C1353.2,-105.22 1404.85,-91.4 1448.26,-79.78"/>
</g>
<!-- Next -->
<g id="node8" class="node">
<title>Next</title>
<path fill="#f8fbff" stroke="#2f5597" d="M1821.38,-212C1821.38,-212 1775.38,-212 1775.38,-212 1769.38,-212 1763.38,-206 1763.38,-200 1763.38,-200 1763.38,-186 1763.38,-186 1763.38,-180 1769.38,-174 1775.38,-174 1775.38,-174 1821.38,-174 1821.38,-174 1827.38,-174 1833.38,-180 1833.38,-186 1833.38,-186 1833.38,-200 1833.38,-200 1833.38,-206 1827.38,-212 1821.38,-212"/>
<text text-anchor="middle" x="1798.38" y="-196.4" font-family="Helvetica,sans-Serif" font-size="12.00">Next</text>
<text text-anchor="middle" x="1798.38" y="-183.4" font-family="Helvetica,sans-Serif" font-size="12.00">Iteration</text>
</g>
<!-- Specs&#45;&gt;Next -->
<g id="edge8" class="edge">
<title>Specs&#45;&gt;Next</title>
<path fill="none" stroke="#444444" d="M1564.93,-157.51C1611.48,-164.62 1702.09,-178.45 1755.39,-186.59"/>
<polygon fill="#444444" stroke="#444444" points="1755.17,-189.21 1762.98,-187.75 1755.96,-184.02 1755.17,-189.21"/>
<text text-anchor="middle" x="1691.88" y="-187" font-family="Helvetica,sans-Serif" font-size="10.00">Guide refinement</text>
</g>
<!-- Next&#45;&gt;Runtime -->
<g id="edge9" class="edge">
<title>Next&#45;&gt;Runtime</title>
<path fill="none" stroke="#444444" d="M1763.3,-201.58C1713.55,-213.33 1617.97,-233 1535.38,-233 515.88,-233 515.88,-233 515.88,-233 443.56,-233 359.66,-224.29 310.98,-218.36"/>
<polygon fill="#444444" stroke="#444444" points="311.24,-215.75 303.47,-217.44 310.59,-220.96 311.24,-215.75"/>
<text text-anchor="middle" x="985.88" y="-236" font-family="Helvetica,sans-Serif" font-size="10.00">Improved behavior</text>
</g>
<!-- Dev -->
<g id="node9" class="node">
<title>Dev</title>
<ellipse fill="#f5f5f5" stroke="#444444" cx="269.15" cy="-107" rx="62.45" ry="26.74"/>
<text text-anchor="middle" x="269.15" y="-110.4" font-family="Helvetica,sans-Serif" font-size="12.00">Developer /</text>
<text text-anchor="middle" x="269.15" y="-97.4" font-family="Helvetica,sans-Serif" font-size="12.00">Architect</text>
</g>
<!-- Dev&#45;&gt;OBS -->
<g id="edge3" class="edge">
<title>Dev&#45;&gt;OBS</title>
<path fill="none" stroke="#444444" d="M329.86,-101.03C362.34,-98.84 403.18,-97.8 439.38,-102 446.25,-102.8 453.39,-103.98 460.44,-105.37"/>
<polygon fill="#444444" stroke="#444444" points="460.15,-108 468.03,-106.96 461.22,-102.86 460.15,-108"/>
<text text-anchor="middle" x="399.88" y="-116" font-family="Helvetica,sans-Serif" font-size="10.00">Inspect reports</text>
<text text-anchor="middle" x="399.88" y="-105" font-family="Helvetica,sans-Serif" font-size="10.00">review behavior</text>
</g>
</g>
</svg>
